<svg id="Layer_1" data-name="Layer 1" xmlns="http://www.w3.org/2000/svg" viewBox="0 0 801.4 802.4"><defs><style>.cls-1{stroke:#000;}.cls-1,.cls-2,.cls-3{stroke-miterlimit:10;}.cls-1,.cls-2{stroke-width:1.4px;}.cls-2,.cls-3,.cls-4{fill:#fff;}.cls-2,.cls-3{stroke:#fff;}.cls-3{stroke-width:1.7px;}</style></defs><rect class="cls-1" x="0.7" y="0.7" width="800" height="801"/><rect class="cls-2" x="275.2" y="350.2" width="39" height="41.5"/><rect class="cls-3" x="275.7" y="391.2" width="43.5" height="9"/><path class="cls-4" d="M298.32,348.31h17.35l11.74,37.08,12-37.08h19.73l12,37.08,11.74-37.08H400.2l-18.43,51.55H361.32l-12-36.79-12.1,36.79H316.9Z" transform="translate(1.2 1.2)"/><path class="cls-4" d="M404,348.31h45.5v11.88H420.58v8.28h26.06v10.3H420.58v9.14h29.66v11.95H404Z" transform="translate(1.2 1.2)"/><path class="cls-4" d="M455.57,348.31h35.35a26,26,0,0,1,10,1.84,16.22,16.22,0,0,1,7,5.18,12.1,12.1,0,0,1,2.52,7.45,11.74,11.74,0,0,1-2.09,6.84,9.92,9.92,0,0,1-5.47,4,10.66,10.66,0,0,1,6.3,4.17,12.58,12.58,0,0,1,0,15.05,16.34,16.34,0,0,1-7,5.15,26.18,26.18,0,0,1-10,1.83H455.57Zm31.75,40.83a10,10,0,0,0,3.71-.65,5.75,5.75,0,0,0,2.52-1.84,4.44,4.44,0,0,0,.9-2.77,4.78,4.78,0,0,0-.9-2.84,6,6,0,0,0-2.52-2,9.06,9.06,0,0,0-3.71-.72H472.7v10.8Zm-.72-20.09a8.79,8.79,0,0,0,3.42-.65,5.5,5.5,0,0,0,2.41-1.84,4.21,4.21,0,0,0,.86-2.55,4.34,4.34,0,0,0-.82-2.59,5.25,5.25,0,0,0-2.38-1.77,9.6,9.6,0,0,0-3.49-.61H472.77v10Z" transform="translate(1.2 1.2)"/><path d="M264,348.31h35.35a26,26,0,0,1,10,1.84,16.25,16.25,0,0,1,7,5.18,12.1,12.1,0,0,1,2.52,7.45,11.74,11.74,0,0,1-2.09,6.84,10,10,0,0,1-5.47,4,10.66,10.66,0,0,1,6.3,4.17,12.58,12.58,0,0,1,0,15.05,16.4,16.4,0,0,1-7,5.15,26.21,26.21,0,0,1-10,1.83H264Zm31.75,40.83a9.94,9.94,0,0,0,3.71-.65,5.75,5.75,0,0,0,2.52-1.84,4.44,4.44,0,0,0,.9-2.77A4.78,4.78,0,0,0,302,381a6,6,0,0,0-2.52-2,9,9,0,0,0-3.71-.72H281.13v10.8ZM295,369.05a8.79,8.79,0,0,0,3.42-.65,5.48,5.48,0,0,0,2.42-1.84,4.28,4.28,0,0,0,.86-2.55,4.35,4.35,0,0,0-.83-2.59,5.17,5.17,0,0,0-2.37-1.77A9.66,9.66,0,0,0,295,359H281.2v10Z" transform="translate(1.2 1.2)"/><path class="cls-4" d="M279.64,425.36a6,6,0,0,1-2.28-1.81,5.27,5.27,0,0,1-1.05-2.64l1.72-.29a3.65,3.65,0,0,0,.71,2,4.51,4.51,0,0,0,1.69,1.38,5.29,5.29,0,0,0,2.29.5,4.83,4.83,0,0,0,2-.38,3.07,3.07,0,0,0,1.32-1,2.36,2.36,0,0,0,.48-1.45,1.84,1.84,0,0,0-.56-1.39,3.65,3.65,0,0,0-1.38-.82,21.18,21.18,0,0,0-2.2-.6,21.41,21.41,0,0,1-2.76-.74,4.09,4.09,0,0,1-1.72-1.15,3.14,3.14,0,0,1-.73-2.21,4.4,4.4,0,0,1,.63-2.33,4.35,4.35,0,0,1,1.78-1.61,5.52,5.52,0,0,1,2.61-.59,5.75,5.75,0,0,1,2.43.51,5,5,0,0,1,1.82,1.45,4.77,4.77,0,0,1,.94,2.13l-1.66.42a3.18,3.18,0,0,0-1.12-2.13,3.6,3.6,0,0,0-2.39-.83,3.93,3.93,0,0,0-1.73.36,2.8,2.8,0,0,0-1.16,1,2.41,2.41,0,0,0-.41,1.35,1.84,1.84,0,0,0,.55,1.38,3.33,3.33,0,0,0,1.29.75c.5.16,1.24.36,2.24.58a23.43,23.43,0,0,1,2.72.74,4.33,4.33,0,0,1,1.8,1.23,3.25,3.25,0,0,1,.75,2.25,4.27,4.27,0,0,1-.69,2.4,4.7,4.7,0,0,1-1.95,1.67,6.37,6.37,0,0,1-2.86.61A7.12,7.12,0,0,1,279.64,425.36Z" transform="translate(1.2 1.2)"/><path class="cls-4" d="M307.93,425a7.17,7.17,0,0,1-2.84-2.81,8.73,8.73,0,0,1,0-8.19,7.33,7.33,0,0,1,2.84-2.82,8.81,8.81,0,0,1,8.23,0A7.24,7.24,0,0,1,319,414a8.73,8.73,0,0,1,0,8.19,7.09,7.09,0,0,1-2.83,2.81,8.89,8.89,0,0,1-8.23,0Zm7.32-1.36a5.86,5.86,0,0,0,2.2-2.27,7.14,7.14,0,0,0,0-6.57,5.86,5.86,0,0,0-2.2-2.27,6.67,6.67,0,0,0-6.41,0,5.81,5.81,0,0,0-2.21,2.27,7.07,7.07,0,0,0,0,6.57,5.81,5.81,0,0,0,2.21,2.27,6.67,6.67,0,0,0,6.41,0Z" transform="translate(1.2 1.2)"/><path class="cls-4" d="M336.71,410.68h1.74v13.25H346v1.56h-9.32Z" transform="translate(1.2 1.2)"/><path class="cls-4" d="M364.47,425.21a5.55,5.55,0,0,1-2.13-2.22,6.68,6.68,0,0,1-.77-3.21v-9.1h1.75v9.1a5.16,5.16,0,0,0,.53,2.35,4.34,4.34,0,0,0,1.5,1.7,4.31,4.31,0,0,0,4.44,0,4.06,4.06,0,0,0,1.5-1.67,5.44,5.44,0,0,0,.53-2.44v-9.07h1.76v9.1a6.68,6.68,0,0,1-.76,3.21,5.58,5.58,0,0,1-2.14,2.22,6.43,6.43,0,0,1-6.21,0Z" transform="translate(1.2 1.2)"/><path class="cls-4" d="M394.5,412.24h-5v-1.56H401.2v1.56h-5v13.25H394.5Z" transform="translate(1.2 1.2)"/><path class="cls-4" d="M417.37,410.68h1.74v14.81h-1.74Z" transform="translate(1.2 1.2)"/><path class="cls-4" d="M439.66,425a7.09,7.09,0,0,1-2.83-2.81,8.73,8.73,0,0,1,0-8.19,7.24,7.24,0,0,1,2.83-2.82,8.81,8.81,0,0,1,8.23,0,7.33,7.33,0,0,1,2.84,2.82,8.73,8.73,0,0,1,0,8.19,7.17,7.17,0,0,1-2.84,2.81,8.89,8.89,0,0,1-8.23,0Zm7.32-1.36a5.79,5.79,0,0,0,2.2-2.27,7.14,7.14,0,0,0,0-6.57,5.79,5.79,0,0,0-2.2-2.27,6.67,6.67,0,0,0-6.41,0,6,6,0,0,0-2.21,2.27,7.07,7.07,0,0,0,0,6.57,6,6,0,0,0,2.21,2.27,6.67,6.67,0,0,0,6.41,0Z" transform="translate(1.2 1.2)"/><path class="cls-4" d="M468.44,410.68h2.29l7.66,12.56V410.68h1.77v14.81h-2.29L470.18,413v12.54h-1.74Z" transform="translate(1.2 1.2)"/><path class="cls-4" d="M499.87,425.36a6,6,0,0,1-2.28-1.81,5.27,5.27,0,0,1-1-2.64l1.72-.29a3.64,3.64,0,0,0,.7,2,4.55,4.55,0,0,0,1.7,1.38,5.28,5.28,0,0,0,2.28.5,4.84,4.84,0,0,0,2-.38,3.13,3.13,0,0,0,1.32-1,2.35,2.35,0,0,0,.47-1.45,1.83,1.83,0,0,0-.55-1.39,3.65,3.65,0,0,0-1.38-.82,21.18,21.18,0,0,0-2.2-.6,22.11,22.11,0,0,1-2.77-.74,4.21,4.21,0,0,1-1.72-1.15,3.18,3.18,0,0,1-.72-2.21,4.28,4.28,0,0,1,2.4-3.94,5.59,5.59,0,0,1,2.62-.59,5.67,5.67,0,0,1,2.42.51,4.94,4.94,0,0,1,1.83,1.45,4.86,4.86,0,0,1,.93,2.13l-1.65.42a3.19,3.19,0,0,0-1.13-2.13,3.56,3.56,0,0,0-2.38-.83,3.9,3.9,0,0,0-1.73.36,2.74,2.74,0,0,0-1.16,1,2.41,2.41,0,0,0-.41,1.35,1.81,1.81,0,0,0,.55,1.38,3.33,3.33,0,0,0,1.29.75c.5.16,1.24.36,2.23.58a22.36,22.36,0,0,1,2.72.74,4.43,4.43,0,0,1,1.81,1.23,3.25,3.25,0,0,1,.75,2.25,4.28,4.28,0,0,1-.7,2.4,4.67,4.67,0,0,1-1.94,1.67,6.41,6.41,0,0,1-2.87.61A7.07,7.07,0,0,1,499.87,425.36Z" transform="translate(1.2 1.2)"/></svg>